{"title":"The Jungle Book 2016 1080p BluRay HEVC DD5.1 x265","uid":15502231,"size":1768167697,"categoryP":"video","categoryS":"hd___movies","magnet":"?xt=urn:btih:1d42f08ef4f2ab1c9a788d6fea477e9454b4087a&amp;dn=The+Jungle+Book+2016+1080p+BluRay+HEVC+DD5.1+x265&amp;tr=udp%3A%2F%2Ftracker.leechers-paradise.org%3A6969&amp;tr=udp%3A%2F%2Fzer0day.ch%3A1337&amp;tr=udp%3A%2F%2Fopen.demonii.com%3A1337&amp;tr=udp%3A%2F%2Ftracker.coppersurfer.tk%3A6969&amp;tr=udp%3A%2F%2Fexodus.desync.com%3A6969","seeders":1,"leechers":1,"uploader":"nayhtut","files":1,"time":1470527889,"description":"[Screenshots]\r\n \nhttps://s8.postimg.org/tp5ow284l/The_Jungle_Book_2016_1080p_Blu_Ray_HEVC_DD5_1_3.jpg \nhttps://s8.postimg.org/z1uja6w11/The_Jungle_Book_2016_1080p_Blu_Ray_HEVC_DD5_1_2.jpg \nhttps://s8.postimg.org/cefa41gh1/The_Jungle_Book_2016_1080p_Blu_Ray_HEVC_DD5_1_1.jpg\r\n\r\n\r\nSource: The Jungle Book 2016 1080p BluRay x264-DTS-FGT (6.81 GB)\r\n\r\n\r\n__--__--__--__--__--__--__--__--__--__--__--__--__--\r\n\r\n\r\nComplete name                            : The.Jungle.Book.2016.1080p.BluRay.HEVC.DD5.1.x265.mkv\r\nFormat                                   : Matroska\r\nFormat version                           : Version 4 / Version 2\r\nFile size                                : 1.65 GiB\r\nDuration                                 : 1 h 45 min\r\nOverall bit rate                         : 2 226 kb/s\r\nEncoded date                             : UTC 2016-08-06 19:31:02\r\nWriting application                      : mkvmerge v9.3.1 ('Mask Machine') 32bit\r\nWriting library                          : libebml v1.3.4 + libmatroska v1.4.5\r\n\r\nVideo\r\n\r\nID                                       : 1\r\nFormat                                   : HEVC\r\nFormat/Info                              : High Efficiency Video Coding\r\nFormat profile                           :   @Main\r\nCodec ID                                 : V_MPEGH/ISO/HEVC\r\nDuration                                 : 1 h 45 min\r\nBit rate                                 : 1 840 kb/s\r\nWidth                                    : 1 920 pixels\r\nHeight                                   : 1 040 pixels\r\nDisplay aspect ratio                     : 1.85:1\r\nOriginal display aspect ratio            : 1.85:1\r\nFrame rate mode                          : Constant\r\nFrame rate                               : 23.976 (24000/1001) FPS\r\nColor space                              : YUV\r\nChroma subsampling                       : 4:2:0\r\nBit depth                                : 8 bits\r\nBits/(Pixel*Frame)                       : 0.038\r\nStream size                              : 1.36 GiB (83%)\r\nWriting library                          : x265 2.0+1-6a9b6a828f79:[Linux][GCC 5.4.0][64 bit] 8bit\r\nLanguage                                 : English\r\nDefault                                  : Yes\r\nForced                                   : No\r\n\r\nAudio\r\n\r\nID                                       : 2\r\nFormat                                   : AC-3\r\nFormat/Info                              : Audio Coding 3\r\nMode extension                           : CM (complete main)\r\nFormat settings, Endianness              : Big\r\nCodec ID                                 : A_AC3\r\nDuration                                 : 1 h 45 min\r\nBit rate mode                            : Constant\r\nBit rate                                 : 384 kb/s\r\nChannel(s)                               : 6 channels\r\nChannel positions                        : Front: L C R, Side: L R, LFE\r\nSampling rate                            : 48.0 kHz\r\nFrame rate                               : 31.250 FPS (1536 spf)\r\nCompression mode                         : Lossy\r\nStream size                              : 291 MiB (17%)\r\nTitle                                    : AC-3 5.1\r\nLanguage                                 : English\r\nDefault                                  : Yes\r\nForced                                   : No\r\n\r\nText\r\n\r\nID                                       : 3\r\nFormat                                   : UTF-8\r\nCodec ID                                 : S_TEXT/UTF8\r\nCodec ID/Info                            : UTF-8 Plain Text\r\nDuration                                 : 1 h 44 min\r\nBit rate                                 : 44 b/s\r\nCount of elements                        : 1218\r\nStream size                              : 34.2 KiB (0%)\r\nTitle                                    : English\r\nLanguage                                 : English\r\nDefault                                  : Yes\r\nForced                                   : No\r\n\r\nMenu\r\n\r\n00:00:00.000                             : :00:00:00.000\r\n00:00:48.215                             : :00:00:48.215\r\n00:05:15.315                             : :00:05:15.315\r\n00:09:02.459                             : :00:09:02.459\r\n00:12:42.178                             : :00:12:42.178\r\n00:16:34.452                             : :00:16:34.452\r\n00:21:20.029                             : :00:21:20.029\r\n00:27:15.133                             : :00:27:15.133\r\n00:35:04.144                             : :00:35:04.144\r\n00:43:21.724                             : :00:43:21.724\r\n00:48:05.132                             : :00:48:05.132\r\n00:53:29.248                             : :00:53:29.248\r\n00:58:03.271                             : :00:58:03.271\r\n01:05:46.442                             : :01:05:46.442\r\n01:10:35.523                             : :01:10:35.523\r\n01:17:01.325                             : :01:17:01.325\r\n01:20:48.927                             : :01:20:48.927\r\n01:24:46.540                             : :01:24:46.540\r\n01:30:32.969                             : :01:30:32.969\r\n01:35:53.206                             : :01:35:53.206\r\n\r\n__--__--__--__--__--__--__--__--__--__--__--__--__--\r\n\r\n\r\nIMDb: http://www.imdb.com/title/tt3040964\r\n\r\nAfter adding torrent with magnet link,\r\n\r\nplease add this  following trackers list to the torrent for better seeds.\r\n\r\n\r\nudp://tracker.coppersurfer.tk:6969/announce\r\n\r\nudp://tracker.opentrackr.org:1337/announce\r\n \nhttp://tracker.baravik.org:6970/announce\r\n \nhttp://tracker2.wasabii.com.tw:6969/announce\r\n\r\nudp://9.rarbg.me:2710/announce\r\n\r\n\r\n__--__--__--__--__--__--__--__--__--__--__--__--__--\r\n\r\n\r\nEnjoy!","torrent":{"xt":"urn:btih:1d42f08ef4f2ab1c9a788d6fea477e9454b4087a","amp;dn":"The+Jungle+Book+2016+1080p+BluRay+HEVC+DD5.1+x265","amp;tr":["udp%3A%2F%2Ftracker.leechers-paradise.org%3A6969","udp%3A%2F%2Fzer0day.ch%3A1337","udp%3A%2F%2Fopen.demonii.com%3A1337","udp%3A%2F%2Ftracker.coppersurfer.tk%3A6969","udp%3A%2F%2Fexodus.desync.com%3A6969"],"infoHash":"1d42f08ef4f2ab1c9a788d6fea477e9454b4087a","infoHashBuffer":{"type":"Buffer","data":[29,66,240,142,244,242,171,28,154,120,141,111,234,71,126,148,84,180,8,122]},"announce":[],"urlList":[]}}